<?xml version="1.0" encoding="UTF-8"?>
<svg xmlns="http://www.w3.org/2000/svg" xmlns:xlink="http://www.w3.org/1999/xlink" width="805px" height="375px" viewBox="0 0 804 375" version="1.1">
<g id="surface1">
<path style=" stroke:none;fill-rule:nonzero;fill:rgb(100%,100%,100%);fill-opacity:1;" d="M 82.144531 106.972656 L 108.980469 122.425781 C 109.949219 122.957031 109.980469 124.484375 108.980469 125.015625 L 77.078125 143.386719 C 76.105469 143.945312 74.964844 143.898438 74.074219 143.386719 L 42.167969 125.015625 C 41.199219 124.484375 41.167969 122.957031 42.167969 122.425781 L 69.007812 106.972656 L 69.007812 76.722656 L 0.507812 116.160156 L 0.507812 195.03125 L 26.78125 179.90625 L 26.78125 149 C 26.765625 147.890625 28.0625 147.113281 29.03125 147.703125 L 60.9375 166.074219 C 61.90625 166.636719 62.4375 167.632812 62.4375 168.675781 L 62.4375 205.398438 C 62.46875 206.507812 61.15625 207.285156 60.203125 206.710938 L 33.347656 191.257812 L 7.074219 206.382812 L 75.574219 245.816406 L 144.074219 206.382812 L 117.800781 191.257812 L 90.964844 206.710938 C 90.011719 207.285156 88.679688 206.539062 88.710938 205.414062 L 88.710938 168.675781 C 88.710938 167.570312 89.320312 166.605469 90.214844 166.089844 L 122.117188 147.71875 C 123.070312 147.144531 124.402344 147.875 124.371094 149.015625 L 124.371094 179.90625 L 150.644531 195.03125 L 150.644531 116.160156 L 82.144531 76.722656 Z M 82.144531 106.972656 "/>
<path style=" stroke:none;fill-rule:nonzero;fill:rgb(100%,100%,100%);fill-opacity:1;" d="M 213.4375 299.988281 L 213.4375 76.132812 L 301.734375 76.132812 C 318.710938 76.132812 333.171875 79.375 345.121094 85.859375 C 357.066406 92.273438 366.175781 101.199219 372.441406 112.640625 C 378.777344 124.007812 381.949219 137.125 381.949219 151.988281 C 381.949219 166.855469 378.742188 179.972656 372.328125 191.339844 C 365.917969 202.707031 356.632812 211.5625 344.464844 217.902344 C 332.371094 224.242188 317.726562 227.410156 300.535156 227.410156 L 244.253906 227.410156 L 244.253906 189.480469 L 292.882812 189.480469 C 301.992188 189.480469 309.496094 187.914062 315.394531 184.78125 C 321.371094 181.574219 325.8125 177.167969 328.726562 171.554688 C 331.714844 165.871094 333.210938 159.351562 333.210938 151.988281 C 333.210938 144.558594 331.714844 138.070312 328.726562 132.535156 C 325.8125 126.921875 321.371094 122.585938 315.394531 119.527344 C 309.421875 116.394531 301.84375 114.824219 292.667969 114.824219 L 260.757812 114.824219 L 260.757812 299.988281 Z M 449.128906 76.132812 L 449.128906 299.988281 L 402.578125 299.988281 L 402.578125 76.132812 Z M 525.054688 303.160156 C 514.34375 303.160156 504.800781 301.300781 496.421875 297.585938 C 488.042969 293.796875 481.414062 288.222656 476.535156 280.859375 C 471.726562 273.425781 469.320312 264.171875 469.320312 253.097656 C 469.320312 243.769531 471.03125 235.9375 474.457031 229.597656 C 477.878906 223.257812 482.542969 218.15625 488.445312 214.292969 C 494.34375 210.433594 501.046875 207.515625 508.550781 205.550781 C 516.128906 203.582031 524.070312 202.199219 532.375 201.394531 C 542.136719 200.375 550.003906 199.429688 555.976562 198.554688 C 561.953125 197.605469 566.285156 196.222656 568.984375 194.402344 C 571.679688 192.578125 573.027344 189.882812 573.027344 186.3125 L 573.027344 185.65625 C 573.027344 178.734375 570.839844 173.378906 566.46875 169.589844 C 562.171875 165.796875 556.050781 163.902344 548.109375 163.902344 C 539.734375 163.902344 533.066406 165.761719 528.113281 169.480469 C 523.160156 173.121094 519.878906 177.714844 518.277344 183.25 L 475.21875 179.753906 C 477.40625 169.550781 481.703125 160.734375 488.117188 153.300781 C 494.527344 145.796875 502.796875 140.039062 512.921875 136.03125 C 523.121094 131.949219 534.925781 129.910156 548.328125 129.910156 C 557.65625 129.910156 566.578125 131.003906 575.101562 133.1875 C 583.699219 135.375 591.3125 138.765625 597.941406 143.355469 C 604.644531 147.945312 609.925781 153.847656 613.789062 161.0625 C 617.648438 168.203125 619.578125 176.765625 619.578125 186.75 L 619.578125 299.988281 L 575.429688 299.988281 L 575.429688 276.707031 L 574.117188 276.707031 C 571.421875 281.953125 567.816406 286.582031 563.300781 290.589844 C 558.785156 294.523438 553.355469 297.621094 547.015625 299.878906 C 540.679688 302.066406 533.359375 303.160156 525.054688 303.160156 Z M 538.386719 271.023438 C 545.234375 271.023438 551.28125 269.675781 556.523438 266.976562 C 561.769531 264.210938 565.886719 260.492188 568.875 255.832031 C 571.859375 251.164062 573.355469 245.882812 573.355469 239.980469 L 573.355469 222.164062 C 571.898438 223.113281 569.894531 223.984375 567.34375 224.789062 C 564.867188 225.515625 562.0625 226.207031 558.929688 226.863281 C 555.796875 227.445312 552.664062 227.992188 549.53125 228.503906 C 546.398438 228.941406 543.558594 229.339844 541.007812 229.707031 C 535.542969 230.507812 530.773438 231.78125 526.691406 233.53125 C 522.613281 235.28125 519.441406 237.648438 517.183594 240.636719 C 514.925781 243.550781 513.796875 247.195312 513.796875 251.566406 C 513.796875 257.90625 516.09375 262.753906 520.683594 266.105469 C 525.34375 269.382812 531.246094 271.023438 538.386719 271.023438 Z M 669.195312 362.949219 C 663.292969 362.949219 657.757812 362.476562 652.582031 361.527344 C 647.484375 360.65625 643.257812 359.523438 639.90625 358.140625 L 650.398438 323.378906 C 655.863281 325.054688 660.78125 325.96875 665.152344 326.113281 C 669.59375 326.257812 673.421875 325.238281 676.625 323.054688 C 679.90625 320.867188 682.5625 317.148438 684.601562 311.902344 L 687.335938 304.800781 L 627.121094 132.097656 L 676.078125 132.097656 L 710.828125 255.390625 L 712.578125 255.390625 L 747.65625 132.097656 L 796.941406 132.097656 L 731.703125 318.132812 C 728.570312 327.167969 724.304688 335.039062 718.917969 341.746094 C 713.597656 348.519531 706.859375 353.730469 698.699219 357.375 C 690.539062 361.089844 680.703125 362.949219 669.195312 362.949219 Z M 669.195312 362.949219 "/>
</g>
</svg>
